<svg width="430" height="608" viewBox="0 0 430 608" fill="none" xmlns="http://www.w3.org/2000/svg">
<g opacity="0.2" clip-path="url(#clip0_702_6661)">
<path opacity="0.0416667" d="M515.563 982.187C387.586 679.085 225.34 488.557 160.215 431.18C54.0432 358.814 -110.828 214.783 79.063 217.587C316.426 221.092 420.306 313.111 359.23 421.747C298.155 530.383 174.826 398.126 235.273 296.499C295.719 194.871 218.904 48.8163 120.154 -59.4161C41.1533 -146.002 -82.2002 -248.055 -134.002 -288.259" stroke="white" stroke-width="1.9375"/>
<path opacity="0.0833333" d="M448.277 1009.61C352.683 694.788 211.243 488.344 152.471 424.474C54.4456 341.407 -94.4667 180.931 94.0906 203.568C329.787 231.865 423.479 334.239 351.383 435.895C279.286 537.552 170.458 393.129 241.196 298.376C311.934 203.624 250.807 50.3398 163.911 -67.622C94.394 -161.991 -17.6164 -276.38 -64.9319 -321.777" stroke="white" stroke-width="1.875"/>
<path opacity="0.125" d="M378.204 1029.71C316.042 706.624 196.955 486.526 145.182 416.863C56.3765 324.003 -74.9457 148.841 110.212 191.064C341.66 243.843 424.138 355.449 341.81 449.013C259.483 542.577 166.347 387.569 246.602 300.73C326.857 213.891 282.087 55.0565 207.997 -71.3421C148.726 -172.461 49.2856 -297.931 6.97462 -348.026" stroke="white" stroke-width="1.8125"/>
<path opacity="0.166667" d="M306.126 1042.24C278.076 714.431 182.649 483.091 138.441 408.398C59.8281 306.765 -52.4652 118.835 127.265 180.181C351.928 256.864 422.288 376.48 330.631 460.925C238.974 545.371 162.551 381.477 251.444 303.502C340.336 225.528 312.414 62.884 251.943 -70.5667C203.566 -177.327 117.786 -312.504 80.943 -366.747" stroke="white" stroke-width="1.75"/>
<path opacity="0.208333" d="M232.845 1047.04C239.215 718.094 168.491 478.046 132.333 399.141C64.7747 289.847 -27.2595 91.2089 145.074 171.006C360.49 270.753 417.962 397.068 317.98 471.47C217.998 545.872 159.126 374.887 255.682 306.632C352.238 238.377 341.47 73.7051 295.279 -65.3355C258.326 -176.568 187.146 -319.971 156.175 -377.768" stroke="white" stroke-width="1.6875"/>
<path opacity="0.25" d="M159.175 1044.02C199.895 717.542 154.651 471.417 126.939 389.164C71.1742 273.407 0.407574 66.2371 163.456 163.611C367.266 285.328 411.219 416.959 304.008 480.502C196.797 544.046 156.119 367.844 259.281 310.056C362.443 252.267 368.947 87.3719 337.543 -55.7353C312.419 -170.221 256.619 -320.279 231.859 -380.997" stroke="white" stroke-width="1.625"/>
<path opacity="0.291667" d="M85.9363 1033.19C160.559 712.749 141.29 463.243 122.327 378.544C78.9685 257.593 30.2447 44.16 182.221 158.044C372.192 300.398 402.145 435.902 288.879 487.891C175.613 539.88 153.577 360.391 262.214 313.703C370.851 267.014 394.556 103.702 378.282 -41.904C365.264 -158.389 325.454 -313.457 307.177 -376.43" stroke="white" stroke-width="1.5625"/>
<path opacity="0.333333" d="M13.9441 1014.62C121.653 703.738 128.57 453.585 118.565 367.368C88.0861 242.547 61.939 25.1905 201.179 154.336C375.229 315.768 390.854 453.66 272.774 493.525C154.694 533.39 151.54 352.581 264.463 317.504C377.385 282.427 418.03 122.487 417.066 -24.0222C416.295 -141.23 392.912 -299.61 381.318 -364.149" stroke="white" stroke-width="1.5"/>
<path opacity="0.375" d="M-56.0006 988.497C83.6142 690.577 116.641 442.516 115.703 355.726C98.4389 228.403 95.1549 9.50414 220.133 152.497C376.355 331.237 377.481 470.008 255.881 497.312C134.281 524.615 150.044 344.467 266.014 321.386C381.985 298.304 439.125 143.489 453.481 -2.31809C464.965 -118.964 458.266 -278.921 453.481 -344.318" stroke="white" stroke-width="1.4375"/>
<path opacity="0.416667" d="M-123.121 955.072C46.8703 673.377 105.646 430.128 113.785 343.716C109.924 215.285 129.539 -2.75785 238.886 152.515C375.569 346.606 362.183 484.734 238.395 499.178C114.607 513.621 149.114 336.108 266.862 325.275C384.61 314.442 457.62 166.448 487.138 22.9399C510.752 -91.8665 520.81 -251.647 522.887 -317.187" stroke="white" stroke-width="1.375"/>
<path opacity="0.458333" d="M-186.667 914.682C11.8375 652.299 95.7176 416.527 112.844 331.438C122.43 203.307 164.729 -11.4907 257.246 154.361C372.892 361.677 345.141 497.649 220.522 499.074C95.9023 500.499 148.776 327.565 267.011 329.099C385.246 330.634 473.326 191.082 517.683 51.4455C553.168 -60.2636 579.872 -218.118 588.788 -283.081" stroke="white" stroke-width="1.3125"/>
<path opacity="0.5" d="M-245.931 867.737C-21.0875 627.541 86.978 401.828 112.905 318.996C135.831 192.569 200.351 -16.631 275.025 157.983C368.367 376.251 326.556 508.578 202.47 496.968C78.3843 485.359 149.045 318.899 266.472 332.784C383.898 346.669 486.083 217.089 544.793 82.8542C591.761 -24.5337 634.819 -178.732 650.477 -242.407" stroke="white" stroke-width="1.25"/>
<path opacity="0.541667" d="M-300.252 814.721C-51.5324 599.344 79.5346 386.164 113.978 306.495C149.994 183.157 236.028 -18.1522 292.04 163.311C362.056 390.14 306.642 517.371 184.449 492.855C62.2565 468.339 149.93 310.177 265.262 336.26C380.594 362.344 495.764 244.155 568.183 116.792C626.119 14.9017 685.059 -133.951 707.287 -195.641" stroke="white" stroke-width="1.1875"/>
<path opacity="0.583333" d="M-349.022 756.185C-79.1518 567.986 73.4807 369.674 116.063 294.042C164.774 175.145 271.379 -16.0693 308.117 170.255C354.039 403.16 285.629 523.902 166.668 486.747C47.7075 449.593 151.433 301.462 263.407 339.458C375.381 377.454 502.274 271.95 587.609 152.855C655.878 57.5792 730.055 -84.2969 758.609 -143.325" stroke="white" stroke-width="1.125"/>
<path opacity="0.625" d="M-391.694 692.739C-103.63 533.78 68.8956 352.508 119.151 281.741C180.022 168.587 306.031 -10.4361 323.091 178.707C344.416 415.137 263.76 528.066 149.335 478.681C34.9098 429.295 153.551 292.817 260.94 342.31C368.329 391.802 505.554 300.141 602.872 190.618C680.726 103 769.326 -30.3452 803.894 -86.0656" stroke="white" stroke-width="1.0625"/>
<path opacity="0.666667" d="M-427.787 625.046C-124.686 497.069 65.8428 334.824 123.22 269.698C195.586 163.527 339.617 -1.34417 336.813 188.546C333.308 425.91 241.289 529.79 132.653 468.714C24.0168 407.638 156.274 284.31 257.901 344.756C359.528 405.203 505.583 328.387 613.816 229.637C700.402 150.637 802.455 27.2833 842.658 -24.5185" stroke="white"/>
<path opacity="0.708333" d="M-456.896 553.819C-142.078 458.226 64.366 316.785 128.236 258.014C211.304 159.988 371.78 11.0755 349.142 199.633C320.845 435.329 218.472 529.022 116.815 456.925C15.1579 384.828 159.582 276 254.334 346.738C349.086 417.476 502.37 356.349 620.332 269.453C714.702 199.936 829.09 87.9258 874.488 40.6102" stroke="white" stroke-width="0.9375"/>
<path opacity="0.75" d="M-478.688 479.806C-155.602 417.644 64.4957 298.557 134.159 246.784C227.018 157.978 402.181 26.6558 359.957 211.814C307.178 443.261 195.572 525.739 102.008 443.412C8.44465 361.084 163.453 267.948 250.292 348.203C337.131 428.458 495.965 383.688 622.364 309.599C723.483 250.327 848.952 150.887 899.048 108.576" stroke="white" stroke-width="0.875"/>
<path opacity="0.791667" d="M-492.913 403.787C-165.099 375.737 66.2409 280.309 140.934 236.102C242.567 157.489 430.497 45.1954 369.151 224.926C292.468 449.588 172.852 519.949 88.4067 428.292C3.96105 336.635 167.855 260.212 245.83 349.105C323.804 437.997 486.448 410.075 619.899 349.604C726.659 301.226 861.836 215.446 916.079 178.604" stroke="white" stroke-width="0.8125"/>
<path opacity="0.833333" d="M-499.4 326.565C-170.45 332.934 69.5975 262.211 148.503 226.053C257.796 158.494 456.435 66.4602 376.637 238.793C276.891 454.21 150.576 511.681 76.1736 411.7C1.77122 311.718 172.756 252.845 241.011 349.402C309.267 445.958 473.938 435.189 612.979 388.999C724.212 352.046 867.614 280.866 925.412 249.895" stroke="white" stroke-width="0.75"/>
<path opacity="0.875" d="M-498.07 248.954C-171.587 289.674 74.5377 244.43 156.79 216.718C272.547 160.953 479.717 90.1866 382.343 253.235C260.626 457.045 128.996 500.998 65.4519 393.787C1.90809 286.576 178.11 245.898 235.899 349.06C293.687 452.222 458.582 458.726 601.69 427.322C716.175 402.198 866.233 346.398 926.951 321.638" stroke="white" stroke-width="0.6875"/>
<path opacity="0.916667" d="M-488.92 171.775C-168.483 246.398 81.0232 227.128 165.722 208.166C286.673 164.807 500.106 116.083 386.222 268.06C243.868 458.03 108.364 487.984 56.3751 374.718C4.38595 261.452 183.875 239.415 230.563 348.053C277.252 456.69 440.564 480.394 586.17 464.121C702.655 451.102 857.723 411.293 920.696 393.015" stroke="white" stroke-width="0.625"/>
<path opacity="0.958333" d="M-472.044 95.8417C-161.162 203.551 88.9918 210.467 175.208 200.462C300.03 169.984 517.386 143.837 388.241 283.077C226.809 457.126 88.9162 472.752 49.0514 354.672C9.1866 236.592 189.996 233.438 225.073 346.36C260.15 459.283 420.09 499.928 566.599 498.964C683.806 498.193 842.186 474.81 906.725 463.215" stroke="white" stroke-width="0.5625"/>
<path d="M-447.608 21.9556C-149.688 161.57 98.3717 194.598 185.162 193.659C312.485 176.395 531.384 173.111 388.391 298.089C209.651 454.311 70.8804 455.437 43.5767 333.837C16.273 212.237 196.421 228 219.503 343.97C242.584 459.941 397.399 517.081 543.206 531.437C659.852 542.921 819.809 536.222 885.206 531.437" stroke="white" stroke-width="0.5"/>
</g>
<defs>
<clipPath id="clip0_702_6661">
<rect width="608" height="608" fill="white" transform="translate(-89)"/>
</clipPath>
</defs>
</svg>
