<svg width="1920" height="921" viewBox="0 0 1920 921" fill="none" xmlns="http://www.w3.org/2000/svg">
<g opacity="0.2" clip-path="url(#clip0_570_1436)">
<path opacity="0.0416667" d="M1909.15 2602.64C1505.01 1645.48 992.654 1043.81 786.995 862.621C451.716 634.096 -68.9292 179.26 530.725 188.116C1280.29 199.185 1608.34 489.77 1415.46 832.832C1222.59 1175.89 833.135 758.24 1024.02 437.312C1214.9 116.384 972.328 -344.843 660.485 -686.63C411.011 -960.059 21.4732 -1282.33 -142.111 -1409.29" stroke="white" stroke-width="1.9375"/>
<path opacity="0.0833333" d="M1696.66 2689.23C1394.79 1695.07 948.134 1043.14 762.541 841.445C452.986 579.126 -17.2635 72.3593 578.181 143.847C1322.49 233.206 1618.36 556.49 1390.68 877.512C1163.01 1198.53 819.34 742.459 1042.72 443.241C1266.11 144.024 1073.07 -340.032 798.665 -712.543C579.139 -1010.55 225.422 -1371.78 76.0042 -1515.14" stroke="white" stroke-width="1.875"/>
<path opacity="0.125" d="M1475.38 2752.71C1279.08 1732.44 903.017 1037.4 739.523 817.408C459.084 524.168 44.382 -28.9765 629.092 104.36C1359.98 271.031 1620.44 623.471 1360.45 918.936C1100.47 1214.4 806.358 724.901 1059.79 450.673C1313.23 176.444 1171.85 -325.138 937.886 -724.291C750.712 -1043.61 436.691 -1439.83 303.078 -1598.03" stroke="white" stroke-width="1.8125"/>
<path opacity="0.166667" d="M1247.77 2792.3C1159.19 1757.1 857.837 1026.55 718.234 790.677C469.983 469.73 115.372 -123.733 682.942 69.992C1392.4 312.149 1614.59 689.882 1325.15 956.553C1035.71 1223.22 794.372 705.662 1075.09 459.428C1355.8 213.193 1267.62 -300.419 1076.66 -721.843C923.892 -1058.98 653.007 -1485.86 536.662 -1657.15" stroke="white" stroke-width="1.75"/>
<path opacity="0.208333" d="M1016.35 2807.45C1036.47 1768.66 813.131 1010.62 698.948 761.445C485.605 416.307 194.971 -210.972 739.181 41.019C1419.44 356.008 1600.93 754.898 1285.2 989.852C969.469 1224.81 783.556 684.855 1088.47 469.312C1393.38 253.768 1359.38 -266.247 1213.51 -705.323C1096.82 -1056.58 872.041 -1509.43 774.238 -1691.95" stroke="white" stroke-width="1.6875"/>
<path opacity="0.25" d="M783.712 2797.92C912.299 1766.92 769.423 989.683 681.911 729.939C505.813 364.391 282.34 -289.831 797.228 17.6651C1440.84 402.035 1579.64 817.711 1241.08 1018.38C902.516 1219.04 774.061 662.612 1099.83 480.122C1425.61 297.632 1446.15 -223.09 1346.98 -675.007C1267.64 -1036.54 1091.43 -1510.41 1013.24 -1702.15" stroke="white" stroke-width="1.625"/>
<path opacity="0.291667" d="M552.431 2763.69C788.082 1751.79 727.232 963.871 667.35 696.402C530.427 314.45 376.563 -359.548 856.489 0.084314C1456.4 449.625 1550.99 877.531 1193.3 1041.71C835.621 1205.88 766.033 639.077 1109.1 491.639C1452.16 344.201 1527.02 -171.521 1475.63 -631.329C1434.52 -999.175 1308.8 -1488.86 1251.08 -1687.73" stroke="white" stroke-width="1.5625"/>
<path opacity="0.333333" d="M325.087 2705.06C665.22 1723.33 687.063 933.372 655.468 661.109C559.22 266.936 476.65 -419.452 916.355 -11.624C1465.99 498.161 1515.33 933.611 1142.45 1059.5C769.561 1185.39 759.601 614.413 1116.2 503.643C1472.8 392.872 1601.15 -112.2 1598.1 -574.861C1595.67 -944.989 1521.83 -1445.14 1485.21 -1648.94" stroke="white" stroke-width="1.5"/>
<path opacity="0.375" d="M104.208 2622.57C545.097 1681.77 649.394 898.42 646.431 624.346C591.912 222.272 581.542 -468.988 976.208 -17.432C1469.54 547.012 1473.1 985.235 1089.1 1071.46C705.097 1157.68 754.875 588.79 1121.1 515.901C1487.32 443.012 1667.76 -45.8764 1713.1 -506.321C1749.36 -874.676 1728.21 -1379.8 1713.1 -1586.32" stroke="white" stroke-width="1.4375"/>
<path opacity="0.416667" d="M-107.75 2517.02C429.064 1627.45 614.671 859.3 640.373 586.418C628.181 180.847 690.124 -507.709 1035.43 -17.3733C1467.06 595.546 1424.79 1031.74 1033.88 1077.35C642.97 1122.96 751.94 562.392 1123.77 528.183C1495.61 493.974 1726.17 26.6254 1819.38 -426.558C1893.95 -789.105 1925.72 -1293.67 1932.27 -1500.64" stroke="white" stroke-width="1.375"/>
<path opacity="0.458333" d="M-308.424 2389.47C318.434 1560.89 583.319 816.346 637.403 547.645C667.672 143.023 801.249 -535.287 1093.41 -11.5433C1458.61 643.136 1370.97 1072.52 977.437 1077.02C583.902 1081.52 750.871 535.414 1124.24 540.259C1497.62 545.105 1775.77 104.416 1915.84 -336.541C2027.9 -689.307 2112.23 -1187.79 2140.38 -1392.94" stroke="white" stroke-width="1.3125"/>
<path opacity="0.5" d="M-495.573 2241.22C214.46 1482.71 555.72 769.93 637.596 508.354C709.993 109.112 913.741 -551.519 1149.55 -0.105847C1444.32 689.161 1312.28 1107.03 920.432 1070.37C528.582 1033.71 751.72 508.05 1122.54 551.897C1493.36 595.745 1816.05 186.544 2001.45 -237.356C2149.77 -576.476 2285.74 -1063.42 2335.19 -1264.5" stroke="white" stroke-width="1.25"/>
<path opacity="0.541667" d="M-667.111 2073.8C118.319 1393.67 532.215 720.463 640.984 468.879C754.717 79.3913 1026.4 -556.323 1203.29 16.7185C1424.39 733.021 1249.39 1134.8 863.523 1057.38C477.652 979.965 754.514 480.506 1118.72 562.874C1482.93 645.243 1846.62 272.014 2075.32 -130.184C2258.27 -451.943 2444.4 -922.003 2514.59 -1116.81" stroke="white" stroke-width="1.1875"/>
<path opacity="0.583333" d="M-821.122 1888.95C31.0993 1294.64 513.097 668.39 647.568 429.553C801.39 54.0875 1138.04 -549.746 1254.05 38.6462C1399.07 774.136 1183.04 1155.43 807.373 1038.1C431.708 920.767 759.261 452.983 1112.86 572.971C1466.47 692.958 1867.18 359.79 2136.66 -16.2995C2352.25 -317.171 2586.49 -765.201 2676.66 -951.607" stroke="white" stroke-width="1.125"/>
<path opacity="0.625" d="M-955.875 1688.6C-46.2001 1186.62 498.618 614.182 657.317 390.71C849.544 33.3801 1247.47 -531.956 1301.34 65.3394C1368.68 811.959 1113.98 1168.58 752.637 1012.62C391.294 856.669 765.95 425.687 1105.07 581.979C1444.2 738.27 1877.54 448.813 2184.86 102.952C2430.71 -173.736 2710.5 -594.827 2819.67 -770.786" stroke="white" stroke-width="1.0625"/>
<path opacity="0.666667" d="M-1069.85 1474.83C-112.692 1070.69 488.978 558.338 670.167 352.679C898.692 17.3997 1353.53 -503.245 1344.67 96.4095C1333.6 845.978 1043.02 1174.02 699.957 981.149C356.895 788.278 774.548 398.819 1095.48 589.703C1416.4 780.586 1877.63 538.012 2219.42 226.169C2492.85 -23.3052 2815.12 -412.843 2942.08 -576.427" stroke="white"/>
<path opacity="0.708333" d="M-1161.78 1249.9C-167.615 948.027 484.314 501.372 686.008 315.779C948.327 6.22391 1455.09 -464.025 1383.61 131.419C1294.25 875.724 970.963 1171.59 649.942 943.92C328.92 716.247 784.995 372.578 1084.21 595.962C1383.43 819.346 1867.49 626.311 2240 351.903C2538.01 132.377 2899.23 -221.34 3042.59 -370.758" stroke="white" stroke-width="0.9375"/>
<path opacity="0.75" d="M-1230.59 1016.18C-210.323 819.874 484.723 443.811 704.712 280.317C997.952 -0.122806 1551.1 -414.825 1417.76 169.885C1251.09 900.772 898.649 1161.23 603.185 901.247C307.72 641.265 797.219 347.151 1071.45 600.588C1345.68 854.025 1847.26 712.646 2246.41 478.679C2565.73 291.505 2961.95 -22.5153 3120.15 -156.129" stroke="white" stroke-width="0.875"/>
<path opacity="0.791667" d="M-1275.51 776.116C-240.313 687.537 490.235 386.187 726.108 246.584C1047.06 -1.66786 1640.52 -356.278 1446.79 211.291C1204.64 920.752 826.903 1142.94 560.232 853.5C293.561 564.057 811.122 322.721 1057.36 603.435C1303.59 884.148 1817.2 795.973 2238.63 605.011C2575.77 452.241 3002.64 181.357 3173.93 65.0107" stroke="white" stroke-width="0.8125"/>
<path opacity="0.833333" d="M-1296 532.257C-257.211 552.371 500.834 329.034 750.008 214.852C1095.15 1.50814 1722.43 -289.126 1470.43 255.084C1155.45 935.347 756.556 1116.84 521.601 801.104C286.646 485.372 826.598 299.459 1042.14 604.373C1257.68 909.287 1777.7 875.282 2216.78 729.416C2568.04 612.724 3020.89 387.944 3203.41 290.141" stroke="white" stroke-width="0.75"/>
<path opacity="0.875" d="M-1291.8 287.172C-260.802 415.759 516.435 272.883 776.179 185.371C1141.73 9.27332 1795.95 -214.2 1488.45 300.688C1104.08 944.299 688.408 1083.1 487.743 744.537C287.078 405.976 843.506 277.521 1026 603.295C1208.49 929.069 1729.21 949.607 2181.13 850.436C2542.66 771.1 3016.53 594.887 3208.27 516.698" stroke="white" stroke-width="0.6875"/>
<path opacity="0.916667" d="M-1262.91 43.4462C-250.999 279.097 536.915 218.247 804.384 158.366C1186.34 21.4427 1860.33 -132.422 1500.7 347.504C1051.16 947.411 623.255 1042 459.079 684.319C294.903 326.637 861.71 257.048 1009.15 600.113C1156.59 943.178 1672.31 1018.03 2132.12 966.644C2499.96 925.533 2989.65 799.818 3188.51 742.1" stroke="white" stroke-width="0.625"/>
<path opacity="0.958333" d="M-1209.61 -196.342C-227.879 143.791 562.079 165.634 834.342 134.039C1228.51 37.7907 1914.9 -44.7791 1507.08 394.926C997.29 944.557 561.841 993.9 435.952 621.016C310.063 248.133 881.039 238.173 991.809 594.77C1102.58 951.367 1607.65 1079.72 2070.31 1076.68C2440.44 1074.24 2940.59 1000.4 3144.4 963.784" stroke="white" stroke-width="0.5625"/>
<path d="M-1132.45 -429.667C-191.648 11.2221 591.7 115.518 865.774 112.555C1267.85 58.0369 1959.11 47.6666 1507.55 442.333C943.107 935.667 504.885 939.222 418.663 555.222C332.441 171.222 901.33 221 974.219 587.222C1047.11 953.444 1536 1133.89 1996.44 1179.22C2364.8 1215.49 2869.92 1194.33 3076.44 1179.22" stroke="white" stroke-width="0.5"/>
</g>
<defs>
<clipPath id="clip0_570_1436">
<rect width="1920" height="1920" fill="white" transform="translate(0 -499)"/>
</clipPath>
</defs>
</svg>
