<svg width="541" height="320" viewBox="0 0 541 320" fill="none" xmlns="http://www.w3.org/2000/svg">
<g opacity="0.5">
<path opacity="0.0416667" d="M-514.208 117.039C-310.784 199.588 -127.997 299.826 -81.5638 361.737C-35.1301 423.649 -11.5447 520.939 41.5223 563.687C83.9759 597.886 211.042 666.873 269.268 697.092" stroke="white" stroke-width="1.9375"/>
<path opacity="0.0833333" d="M-502.415 102.299C-298.991 184.847 -116.204 285.085 -69.7708 346.997C-23.3371 408.908 0.248222 506.198 53.3153 548.946C95.7689 583.145 222.835 652.132 281.061 682.351" stroke="white" stroke-width="1.875"/>
<path opacity="0.125" d="M-490.622 87.5577C-287.198 170.106 -104.412 270.344 -57.9783 332.256C-11.5446 394.167 12.0407 491.457 65.1077 534.205C107.561 568.404 234.627 637.391 292.854 667.61" stroke="white" stroke-width="1.8125"/>
<path opacity="0.166667" d="M-478.829 72.8169C-275.405 155.366 -92.619 255.603 -46.1853 317.515C0.248321 379.426 23.8337 476.716 76.9007 519.464C119.354 553.663 246.42 622.65 304.647 652.869" stroke="white" stroke-width="1.75"/>
<path opacity="0.208333" d="M-467.037 58.076C-263.613 140.625 -80.8265 240.862 -34.3929 302.774C12.0408 364.686 35.6262 461.975 88.6932 504.724C131.147 538.922 258.213 607.909 316.439 638.128" stroke="white" stroke-width="1.6875"/>
<path opacity="0.25" d="M-455.244 43.3352C-251.82 125.884 -69.034 226.122 -22.6004 288.033C23.8333 349.945 47.4186 447.234 100.486 489.983C142.939 524.181 270.005 593.169 328.232 623.387" stroke="white" stroke-width="1.625"/>
<path opacity="0.291667" d="M-443.451 28.5943C-240.028 111.143 -57.2411 211.381 -10.8074 273.292C35.6263 335.204 59.2116 432.493 112.279 475.242C154.732 509.441 281.798 578.428 340.025 608.647" stroke="white" stroke-width="1.5625"/>
<path opacity="0.333333" d="M-431.659 13.8535C-228.235 96.4022 -45.4486 196.64 0.985073 258.551C47.4187 320.463 71.0041 417.753 124.071 460.501C166.525 494.7 293.591 563.687 351.817 593.906" stroke="white" stroke-width="1.5"/>
<path opacity="0.375" d="M-419.866 -0.88736C-216.442 81.6614 -33.6556 181.899 12.778 243.811C59.2117 305.722 82.797 403.012 135.864 445.76C178.318 479.959 305.384 548.946 363.61 579.165" stroke="white" stroke-width="1.4375"/>
<path opacity="0.416667" d="M-408.073 -15.6282C-204.65 66.9205 -21.8631 167.158 24.5705 229.07C71.0042 290.981 94.5895 388.271 147.657 431.019C190.11 465.218 317.176 534.205 375.403 564.424" stroke="white" stroke-width="1.375"/>
<path opacity="0.458333" d="M-396.281 -30.369C-192.857 52.1797 -10.0707 152.417 36.363 214.329C82.7967 276.241 106.382 373.53 159.449 416.279C201.903 450.477 328.969 519.464 387.195 549.683" stroke="white" stroke-width="1.3125"/>
<path opacity="0.5" d="M-384.488 -45.1099C-181.064 37.4388 1.72231 137.677 48.156 199.588C94.5896 261.5 118.175 358.789 171.242 401.538C213.696 435.736 340.762 504.724 398.988 534.942" stroke="white" stroke-width="1.25"/>
<path opacity="0.541667" d="M-372.695 -59.8507C-169.272 22.698 13.5148 122.936 59.9485 184.847C106.382 246.759 129.967 344.048 183.034 386.797C225.488 420.996 352.554 489.983 410.781 520.201" stroke="white" stroke-width="1.1875"/>
<path opacity="0.583333" d="M-360.902 -74.5916C-157.479 7.95714 25.3078 108.195 71.7414 170.106C118.175 232.018 141.76 329.308 194.827 372.056C237.281 406.255 364.347 475.242 422.574 505.461" stroke="white" stroke-width="1.125"/>
<path opacity="0.625" d="M-349.11 -89.3324C-145.686 -6.78369 37.1002 93.4541 83.5339 155.366C129.968 217.277 153.553 314.567 206.62 357.315C249.074 391.514 376.14 460.501 434.366 490.72" stroke="white" stroke-width="1.0625"/>
<path opacity="0.666667" d="M-337.317 -104.073C-133.894 -21.5245 48.8927 78.7132 95.3264 140.625C141.76 202.536 165.345 299.826 218.412 342.574C260.866 376.773 387.932 445.76 446.158 475.979" stroke="white"/>
<path opacity="0.708333" d="M-325.524 -118.814C-122.101 -36.2654 60.6857 63.9724 107.119 125.884C153.553 187.795 177.138 285.085 230.205 327.833C272.659 362.032 399.725 431.019 457.951 461.238" stroke="white" stroke-width="0.9375"/>
<path opacity="0.75" d="M-313.732 -133.555C-110.308 -51.0062 72.4782 49.2315 118.912 111.143C165.345 173.055 188.931 270.344 241.998 313.093C284.452 347.291 411.518 416.279 469.744 446.497" stroke="white" stroke-width="0.875"/>
<path opacity="0.791667" d="M-301.939 -148.296C-98.5153 -65.7471 84.2711 34.4907 130.705 96.4022C177.138 158.314 200.724 255.603 253.791 298.352C296.244 332.551 423.311 401.538 481.537 431.756" stroke="white" stroke-width="0.8125"/>
<path opacity="0.833333" d="M-290.146 -163.037C-86.7228 -80.4879 96.0636 19.7498 142.497 81.6614C188.931 143.573 212.516 240.862 265.583 283.611C308.037 317.81 435.103 386.797 493.329 417.016" stroke="white" stroke-width="0.75"/>
<path opacity="0.875" d="M-278.354 -177.777C-74.9304 -95.2287 107.856 5.009 154.29 66.9205C200.723 128.832 224.309 226.122 277.376 268.87C319.829 303.069 446.896 372.056 505.122 402.275" stroke="white" stroke-width="0.6875"/>
<path opacity="0.916667" d="M-266.561 -192.518C-63.1374 -109.97 119.649 -9.73185 166.083 52.1797C212.516 114.091 236.102 211.381 289.169 254.129C331.622 288.328 458.688 357.315 516.915 387.534" stroke="white" stroke-width="0.625"/>
<path opacity="0.958333" d="M-254.769 -207.259C-51.3449 -124.71 131.442 -24.4727 177.875 37.4389C224.309 99.3504 247.894 196.64 300.961 239.388C343.415 273.587 470.481 342.574 528.707 372.793" stroke="white" stroke-width="0.5625"/>
<path d="M-242.976 -222C-39.5519 -139.451 143.235 -39.2135 189.668 22.698C236.102 84.6096 259.687 181.899 312.754 224.648C355.208 258.846 482.274 327.833 540.5 358.052" stroke="white" stroke-width="0.5"/>
</g>
</svg>
