<svg width="430" height="430" viewBox="0 0 430 430" fill="none" xmlns="http://www.w3.org/2000/svg">
<g opacity="0.5">
<path opacity="0.0416667" d="M539.568 349.321C401.266 311.258 275.008 260.142 240.157 223.504C205.305 186.867 182.584 125.529 144.888 101.833C114.731 82.8759 27.0145 47.7927 -13.0743 32.6208" stroke="white" stroke-width="1.9375"/>
<path opacity="0.0833333" d="M533.039 359.786C394.737 321.722 268.479 270.607 233.627 233.969C198.775 197.331 176.054 135.994 138.359 112.298C108.202 93.3407 20.4852 58.2575 -19.6036 43.0855" stroke="white" stroke-width="1.875"/>
<path opacity="0.125" d="M526.51 370.251C388.208 332.187 261.95 281.071 227.098 244.434C192.246 207.796 169.525 146.459 131.829 122.763C101.673 103.806 13.9562 68.7223 -26.1326 53.5504" stroke="white" stroke-width="1.8125"/>
<path opacity="0.166667" d="M519.98 380.716C381.678 342.652 255.421 291.536 220.569 254.899C185.717 218.261 162.996 156.924 125.3 133.227C95.1435 114.27 7.4268 79.1871 -32.662 64.0152" stroke="white" stroke-width="1.75"/>
<path opacity="0.208333" d="M513.451 391.18C375.149 353.117 248.892 302.001 214.04 265.363C179.188 228.726 156.467 167.388 118.771 143.692C88.6145 124.735 0.897806 89.6519 -39.191 74.4799" stroke="white" stroke-width="1.6875"/>
<path opacity="0.25" d="M506.922 401.645C368.62 363.582 242.363 312.466 207.511 275.828C172.659 239.191 149.938 177.853 112.242 154.157C82.0855 135.2 -5.63125 100.117 -45.72 84.9447" stroke="white" stroke-width="1.625"/>
<path opacity="0.291667" d="M500.393 412.11C362.091 374.046 235.833 322.931 200.981 286.293C166.13 249.655 143.408 188.318 105.713 164.622C75.5561 145.665 -12.1606 110.582 -52.2494 95.4096" stroke="white" stroke-width="1.5625"/>
<path opacity="0.333333" d="M493.864 422.575C355.562 384.511 229.304 333.395 194.452 296.758C159.601 260.12 136.879 198.783 99.1837 175.087C69.0271 156.13 -18.6896 121.046 -58.7784 105.874" stroke="white" stroke-width="1.5"/>
<path opacity="0.375" d="M487.335 433.04C349.033 394.976 222.775 343.86 187.923 307.223C153.071 270.585 130.35 209.248 92.6544 185.551C62.4978 166.594 -25.219 131.511 -65.3077 116.339" stroke="white" stroke-width="1.4375"/>
<path opacity="0.416667" d="M480.806 443.504C342.504 405.441 216.246 354.325 181.394 317.687C146.542 281.05 123.821 219.712 86.1254 196.016C55.9688 177.059 -31.7479 141.976 -71.8367 126.804" stroke="white" stroke-width="1.375"/>
<path opacity="0.458333" d="M474.277 453.969C335.975 415.906 209.717 364.79 174.865 328.152C140.013 291.515 117.292 230.177 79.5963 206.481C49.4397 187.524 -38.277 152.441 -78.3658 137.269" stroke="white" stroke-width="1.3125"/>
<path opacity="0.5" d="M467.747 464.434C329.445 426.37 203.187 375.255 168.336 338.617C133.484 301.979 110.763 240.642 73.067 216.946C42.9104 197.989 -44.8064 162.906 -84.8951 147.734" stroke="white" stroke-width="1.25"/>
<path opacity="0.541667" d="M461.218 474.899C322.916 436.835 196.658 385.719 161.807 349.082C126.955 312.444 104.234 251.107 66.538 227.411C36.3814 208.454 -51.3353 173.37 -91.4241 158.198" stroke="white" stroke-width="1.1875"/>
<path opacity="0.583333" d="M454.689 485.364C316.387 447.3 190.129 396.184 155.277 359.547C120.426 322.909 97.7044 261.572 60.0086 237.875C29.852 218.918 -57.8647 183.835 -97.9535 168.663" stroke="white" stroke-width="1.125"/>
<path opacity="0.625" d="M448.16 495.828C309.858 457.765 183.6 406.649 148.748 370.011C113.897 333.374 91.1753 272.036 53.4796 248.34C23.323 229.383 -64.3937 194.3 -104.483 179.128" stroke="white" stroke-width="1.0625"/>
<path opacity="0.666667" d="M441.631 506.293C303.329 468.23 177.071 417.114 142.219 380.476C107.368 343.839 84.6463 282.501 46.9506 258.805C16.794 239.848 -70.9228 204.765 -111.012 189.593" stroke="white"/>
<path opacity="0.708333" d="M435.102 516.758C296.8 478.694 170.542 427.579 135.69 390.941C100.838 354.303 78.117 292.966 40.4212 269.27C10.2646 250.313 -77.4521 215.23 -117.541 200.058" stroke="white" stroke-width="0.9375"/>
<path opacity="0.75" d="M428.572 527.223C290.271 489.159 164.013 438.043 129.161 401.406C94.3091 364.768 71.5879 303.431 33.8922 279.735C3.73558 260.778 -83.9811 225.694 -124.07 210.522" stroke="white" stroke-width="0.875"/>
<path opacity="0.791667" d="M422.043 537.688C283.741 499.624 157.483 448.508 122.632 411.871C87.7798 375.233 65.0586 313.896 27.3629 290.199C-2.79375 271.242 -90.5105 236.159 -130.599 220.987" stroke="white" stroke-width="0.8125"/>
<path opacity="0.833333" d="M415.514 548.152C277.212 510.089 150.954 458.973 116.102 422.335C81.2507 385.698 58.5296 324.36 20.8338 300.664C-9.3228 281.707 -97.0395 246.624 -137.128 231.452" stroke="white" stroke-width="0.75"/>
<path opacity="0.875" d="M408.985 558.617C270.683 520.554 144.425 469.438 109.574 432.8C74.7218 396.163 52.0006 334.825 14.3048 311.129C-15.8518 292.172 -103.569 257.089 -143.657 241.917" stroke="white" stroke-width="0.6875"/>
<path opacity="0.916667" d="M402.456 569.082C264.154 531.018 137.896 479.903 103.044 443.265C68.1924 406.627 45.4712 345.29 7.77545 321.594C-22.3812 302.637 -110.098 267.554 -150.187 252.382" stroke="white" stroke-width="0.625"/>
<path opacity="0.958333" d="M395.927 579.547C257.625 541.483 131.367 490.367 96.5151 453.73C61.6634 417.092 38.9422 355.755 1.24643 332.059C-28.9102 313.102 -116.627 278.018 -156.716 262.846" stroke="white" stroke-width="0.5625"/>
<path d="M389.397 590.012C251.095 551.948 124.838 500.832 89.9858 464.195C55.134 427.557 32.4128 366.22 -5.28293 342.523C-35.4395 323.566 -123.156 288.483 -163.245 273.311" stroke="white" stroke-width="0.5"/>
</g>
</svg>
