<svg width="592" height="128" viewBox="0 0 592 128" fill="none" xmlns="http://www.w3.org/2000/svg">
<path fill-rule="evenodd" clip-rule="evenodd" d="M0 38.299L117.735 4.63184C107.693 43.9542 97.6499 83.2765 87.6079 122.599C81.4022 104.792 74.0177 87.5398 60.2336 73.2985C45.1971 57.851 25.7046 45.7455 0 38.2984L0 38.299Z" fill="#37D204"/>
<path fill-rule="evenodd" clip-rule="evenodd" d="M86.7161 118.462C80.8657 101.675 73.9045 85.4123 60.9116 71.988L115.116 7.25806C105.65 44.3261 96.1832 81.3942 86.7168 118.462L86.7161 118.462Z" fill="url(#paint0_linear_95_1728)"/>
<path fill-rule="evenodd" clip-rule="evenodd" d="M92.0006 34.8616L115.116 7.25806L92.0006 13.8678L4.13086 38.9943C28.3617 46.0144 46.7369 57.4253 60.911 71.988L92.0006 34.861V34.8616Z" fill="url(#paint1_linear_95_1728)"/>
<path d="M65.2036 23.3369L48.2458 41.3729L49.728 42.766L64.5762 26.9753L65.2254 27.5861L56.6406 49.2656L57.8397 50.3937L78.8835 40.4279L79.4994 41.0073L64.6518 56.7986L66.1345 58.1924L83.0917 40.1571L80.1108 37.3535L59.8078 47.0984L68.1686 26.1251L65.2036 23.3369Z" fill="#FEFEFE"/>
<path d="M71.7314 63.6298L79.5096 70.9432C82.641 73.8876 83.7447 74.4158 85.6885 73.9503C87.7161 73.4625 90.2015 71.52 93.9641 67.5186C97.9559 63.2732 99.3753 61.2968 99.8369 59.3364C100.352 57.1206 99.7819 56.0239 96.3509 52.7978L88.6892 45.5939L71.7314 63.6292V63.6298ZM75.197 62.914L88.1886 49.0966L94.3348 54.8753C95.5845 56.0501 96.0673 56.504 96.3163 56.8402C97.2306 57.9036 97.4418 58.7135 97.1473 59.7615C96.7414 61.0612 95.1697 63.2002 92.5505 65.9852C88.4319 70.3657 86.1187 71.8581 84.4868 71.1903C83.6417 70.8542 83.5751 70.7914 81.4265 68.7715L75.197 62.9147V62.914Z" fill="#FEFEFE"/>
<path d="M142 36H156.811L186.933 83.0966L216.473 36H231.367V91.5007H223.961V42.9064H220.883L189.929 91.5007H183.938L152.651 42.9064H149.406V91.5007H142V36Z" fill="white"/>
<path d="M239.674 91.5007V36H277.95C295.091 36 299.335 36.9153 303.495 41.3254C307.157 45.2363 308.322 50.6449 308.322 63.7088C308.322 76.0238 306.574 83.0134 302.414 86.9242C298.42 90.6686 294.176 91.5007 278.533 91.5007H239.674ZM247.079 85.0104H278.2C288.934 85.0104 289.267 85.0104 292.345 84.2615C298.336 82.847 300.749 76.8559 300.749 63.3759C300.749 54.8054 299.585 48.8975 297.421 46.1516C295.59 43.9881 293.011 42.9896 287.935 42.6568C286.437 42.4903 284.024 42.4903 277.784 42.4903H247.079V85.0104Z" fill="white"/>
<path d="M331.049 36H339.203L366.662 84.6776H369.325L396.119 36H404.356L373.735 91.5007H362.336L331.049 36Z" fill="white"/>
<path d="M408.354 52.9747H414.429V91.5007H408.354V52.9747ZM408.354 36H414.429V43.2392H408.354V36Z" fill="white"/>
<path d="M470.525 36V91.5007H464.534V86.5914H464.201C461.289 91.0847 458.043 92 445.645 92C434.911 92 430.418 91.3343 427.006 89.1709C422.43 86.1753 420.599 81.4324 420.599 72.3626C420.599 63.0431 422.763 57.6345 427.672 54.8054C430.834 52.9747 435.577 52.3923 447.143 52.3923C457.794 52.3923 461.372 53.474 464.034 57.5513H464.45V36H470.525ZM446.644 57.7177C437.158 57.7177 433.33 58.3001 430.917 60.0476C428.171 62.0446 427.089 65.5394 427.089 72.3626C427.089 84.3447 430.002 86.6746 444.647 86.6746C454.382 86.6746 458.459 86.0921 460.872 84.3447C463.618 82.3477 464.7 79.0193 464.7 72.6122C464.7 59.9643 462.037 57.7177 446.644 57.7177Z" fill="white"/>
<path d="M519.687 79.6018H526.094C525.845 88.838 520.436 92 504.793 92C491.479 92 485.571 91.0847 482.16 88.422C478.499 85.5929 476.668 80.2675 476.668 72.3626C476.668 62.9599 478.915 57.5513 483.907 54.8054C487.069 53.058 491.479 52.4755 500.799 52.4755C514.112 52.4755 518.689 53.5572 522.267 57.5513C525.179 60.9629 526.011 64.4577 526.178 73.6107H483.242C483.408 78.6033 484.24 81.5988 486.071 83.5126C488.401 85.9257 492.561 86.6746 504.127 86.6746C512.864 86.6746 516.276 86.0089 518.273 83.7623C519.271 82.7637 519.438 82.0981 519.687 79.6018ZM483.408 68.3685H519.438C519.354 59.8811 515.61 57.8009 500.632 57.8009C487.319 57.8009 484.074 59.7979 483.408 68.3685Z" fill="white"/>
<path d="M554.499 52.4755C566.981 52.4755 571.724 53.1412 575.052 55.2214C579.712 58.2169 581.626 63.2095 581.626 72.1961C581.626 81.5156 579.545 86.7578 574.719 89.5037C571.391 91.4175 567.064 92 557.245 92C545.929 92 541.186 91.3343 537.691 89.2541C532.782 86.425 530.868 81.5156 530.868 72.0297C530.868 62.8767 533.198 57.3848 538.274 54.7221C541.435 53.058 545.762 52.4755 554.499 52.4755ZM555.498 57.8009C540.104 57.8009 537.358 60.0475 537.358 72.4458C537.358 80.4339 538.939 83.8455 543.433 85.4264C545.929 86.3418 549.59 86.6746 556.746 86.6746C565.733 86.6746 569.144 86.0921 571.641 84.1783C574.137 82.1813 575.135 78.7697 575.135 72.0297C575.135 64.4577 573.721 61.0461 569.81 59.2987C567.48 58.2169 563.32 57.8009 555.498 57.8009Z" fill="white"/>
<defs>
<linearGradient id="paint0_linear_95_1728" x1="112.361" y1="25.6711" x2="99.1597" y2="77.364" gradientUnits="userSpaceOnUse">
<stop stop-color="#4DAD10"/>
<stop offset="1" stop-color="#398B10"/>
</linearGradient>
<linearGradient id="paint1_linear_95_1728" x1="72.0658" y1="11.3747" x2="79.9188" y2="52.7669" gradientUnits="userSpaceOnUse">
<stop stop-color="#44C108"/>
<stop offset="1" stop-color="#236014"/>
</linearGradient>
</defs>
</svg>
