<svg width="430" height="430" viewBox="0 0 430 430" fill="none" xmlns="http://www.w3.org/2000/svg">
<g opacity="0.3">
<path opacity="0.0416667" d="M325.794 -80.1543C403.161 111.714 411.011 101.596 385.325 189.989C359.639 278.381 269.61 344.23 295.642 446.853C316.467 528.952 374.612 589.693 401.081 609.801" stroke="white" stroke-width="1.9375"/>
<path opacity="0.0833333" d="M349.214 -79.303C406.102 119.602 414.966 110.36 380.182 195.583C345.397 280.806 248.978 336.884 264.14 441.666C276.27 525.492 327.747 591.977 351.969 614.742" stroke="white" stroke-width="1.875"/>
<path opacity="0.125" d="M372.446 -74.6677C408.23 129.094 418.013 120.829 374.51 201.949C331.008 283.07 229.255 328.761 233.382 434.555C236.683 519.189 280.928 590.691 302.638 615.863" stroke="white" stroke-width="1.8125"/>
<path opacity="0.166667" d="M395.093 -66.2898C409.383 140.096 419.975 132.899 368.232 209.028C316.488 285.157 210.517 319.962 203.563 425.607C197.999 510.123 234.528 585.858 253.488 613.161" stroke="white" stroke-width="1.75"/>
<path opacity="0.208333" d="M416.769 -54.2501C409.407 152.499 420.694 146.448 361.276 216.751C301.858 287.055 192.83 310.592 174.87 414.932C160.503 498.403 188.915 577.542 204.917 606.677" stroke="white" stroke-width="1.6875"/>
<path opacity="0.25" d="M437.095 -38.6702C408.163 166.176 420.02 161.339 353.579 225.046C287.138 288.753 176.246 300.765 147.479 402.656C124.465 484.168 144.449 565.843 157.318 596.492" stroke="white" stroke-width="1.625"/>
<path opacity="0.291667" d="M455.709 -19.711C405.523 180.989 417.821 177.418 345.085 233.831C272.349 290.244 160.809 290.599 121.549 388.924C90.1402 467.585 101.478 550.901 111.073 582.727" stroke="white" stroke-width="1.5625"/>
<path opacity="0.333333" d="M472.268 2.43066C401.378 196.786 413.982 194.519 335.747 243.02C257.513 291.521 146.547 280.215 97.2239 373.898C57.7654 448.844 60.332 532.89 66.5476 565.544" stroke="white" stroke-width="1.5"/>
<path opacity="0.375" d="M486.449 27.5217C395.632 213.402 408.404 212.465 325.528 252.523C242.653 292.581 133.476 269.738 74.6309 357.751C27.5545 428.163 21.3219 512.016 24.0902 545.141" stroke="white" stroke-width="1.4375"/>
<path opacity="0.416667" d="M497.958 55.2976C388.209 230.666 401.008 231.07 314.4 262.246C227.791 293.421 121.6 259.291 53.8773 340.672C-0.301171 405.776 -15.2647 488.519 -15.9741 521.752" stroke="white" stroke-width="1.375"/>
<path opacity="0.458333" d="M506.529 85.4645C379.049 248.401 391.736 250.14 302.343 272.092C212.95 294.043 110.909 249 35.0505 322.856C-25.6365 381.941 -49.1669 462.666 -53.3463 495.643" stroke="white" stroke-width="1.3125"/>
<path opacity="0.5" d="M511.927 117.702C368.114 266.421 380.55 269.477 289.352 281.964C198.154 294.451 101.38 238.989 18.2172 304.511C-48.3134 356.928 -80.153 434.751 -87.7565 467.111" stroke="white" stroke-width="1.25"/>
<path opacity="0.541667" d="M513.953 151.668C355.383 284.539 367.432 288.879 275.428 291.765C183.424 294.65 92.9782 229.376 3.42162 285.846C-68.2236 331.022 -108.024 405.091 -118.968 436.479" stroke="white" stroke-width="1.1875"/>
<path opacity="0.583333" d="M512.446 187C340.856 302.568 352.385 308.143 260.584 301.396C168.782 294.649 85.6547 220.278 -9.314 267.078C-85.2889 304.517 -132.613 374.02 -146.778 404.092" stroke="white" stroke-width="1.125"/>
<path opacity="0.625" d="M507.282 223.32C324.552 320.319 335.435 327.069 244.842 310.763C154.249 294.457 79.3502 211.805 -19.9901 248.421C-99.4624 277.714 -153.792 341.889 -171.023 370.315" stroke="white" stroke-width="1.0625"/>
<path opacity="0.666667" d="M498.378 260.242C306.509 337.61 316.628 345.46 228.235 319.774C139.843 294.088 73.994 204.059 -28.6296 230.091C-110.728 250.916 -171.469 309.061 -191.577 335.53" stroke="white"/>
<path opacity="0.708333" d="M485.691 297.372C286.787 354.259 296.029 363.124 210.805 328.339C125.582 293.554 69.5048 197.135 -35.2777 212.298C-119.104 224.427 -185.589 275.904 -208.354 300.127" stroke="white" stroke-width="0.9375"/>
<path opacity="0.75" d="M469.22 334.311C265.459 370.096 273.724 379.878 192.603 336.376C111.483 292.873 65.7914 191.121 -40.0019 195.247C-124.637 198.548 -196.139 242.794 -221.31 264.504" stroke="white" stroke-width="0.875"/>
<path opacity="0.791667" d="M449.007 370.668C242.621 384.957 249.818 395.55 173.689 343.806C97.5606 292.063 62.7554 186.092 -42.8897 179.137C-127.406 173.573 -203.141 210.102 -230.444 229.062" stroke="white" stroke-width="0.8125"/>
<path opacity="0.833333" d="M425.132 406.052C218.383 398.69 224.433 409.977 154.13 350.559C83.827 291.141 60.2894 182.113 -44.0499 164.153C-127.521 149.786 -206.66 178.198 -235.796 194.2" stroke="white" stroke-width="0.75"/>
<path opacity="0.875" d="M397.716 440.086C192.87 411.154 197.707 423.011 134 356.571C70.2929 290.13 58.2809 179.238 -43.6096 150.47C-125.122 127.456 -206.797 147.441 -237.446 160.31" stroke="white" stroke-width="0.6875"/>
<path opacity="0.916667" d="M366.922 472.41C166.222 422.223 169.793 434.521 113.38 361.785C56.967 289.049 56.612 177.509 -41.7133 138.249C-120.374 106.84 -203.69 118.178 -235.516 127.773" stroke="white" stroke-width="0.625"/>
<path opacity="0.958333" d="M332.945 502.676C138.59 431.786 140.856 444.39 92.3552 366.156C43.854 287.921 55.1601 176.955 -38.5227 127.632C-113.469 88.1735 -197.514 90.7401 -230.169 96.9557" stroke="white" stroke-width="0.5625"/>
<path d="M296.019 530.566C110.139 439.749 111.075 452.521 71.0173 369.645C30.9596 286.769 53.8029 177.593 -34.2111 118.748C-104.622 71.6713 -188.476 65.4387 -221.601 68.207" stroke="white" stroke-width="0.5"/>
</g>
</svg>
