<svg width="430" height="430" viewBox="0 0 430 430" fill="none" xmlns="http://www.w3.org/2000/svg">
<g opacity="0.5">
<path opacity="0.0416667" d="M539.568 286.884C401.266 248.82 275.009 197.705 240.157 161.067C205.305 124.429 182.584 63.0921 144.888 39.3958C114.731 20.4388 27.0147 -14.6444 -13.074 -29.8163" stroke="white" stroke-width="1.9375"/>
<path opacity="0.0833333" d="M533.039 297.349C394.737 259.285 268.479 208.169 233.627 171.532C198.775 134.894 176.054 73.5569 138.359 49.8606C108.202 30.9036 20.4852 -4.17957 -19.6036 -19.3515" stroke="white" stroke-width="1.875"/>
<path opacity="0.125" d="M526.51 307.814C388.208 269.75 261.95 218.634 227.098 181.997C192.247 145.359 169.525 84.0217 131.83 60.3255C101.673 41.3685 13.9564 6.28527 -26.1324 -8.88669" stroke="white" stroke-width="1.8125"/>
<path opacity="0.166667" d="M519.98 318.279C381.679 280.215 255.421 229.099 220.569 192.461C185.717 155.824 162.996 94.4865 125.3 70.7903C95.1436 51.8332 7.42686 16.7501 -32.6619 1.57809" stroke="white" stroke-width="1.75"/>
<path opacity="0.208333" d="M513.451 328.743C375.149 290.68 248.892 239.564 214.04 202.926C179.188 166.289 156.467 104.951 118.771 81.255C88.6145 62.298 0.897806 27.2148 -39.191 12.0429" stroke="white" stroke-width="1.6875"/>
<path opacity="0.25" d="M506.923 339.208C368.621 301.144 242.363 250.029 207.511 213.391C172.659 176.753 149.938 115.416 112.242 91.7198C82.0857 72.7628 -5.631 37.6796 -45.7198 22.5077" stroke="white" stroke-width="1.625"/>
<path opacity="0.291667" d="M500.393 349.673C362.091 311.609 235.833 260.493 200.981 223.856C166.13 187.218 143.409 125.881 105.713 102.185C75.5562 83.2277 -12.1605 48.1445 -52.2493 32.9725" stroke="white" stroke-width="1.5625"/>
<path opacity="0.333333" d="M493.864 360.138C355.562 322.074 229.304 270.958 194.452 234.321C159.601 197.683 136.879 136.346 99.1837 112.649C69.0271 93.6924 -18.6896 58.6092 -58.7784 43.4373" stroke="white" stroke-width="1.5"/>
<path opacity="0.375" d="M487.335 370.603C349.033 332.539 222.775 281.423 187.923 244.786C153.071 208.148 130.35 146.811 92.6544 123.114C62.4978 104.157 -25.2189 69.0741 -65.3077 53.9021" stroke="white" stroke-width="1.4375"/>
<path opacity="0.416667" d="M480.806 381.067C342.504 343.004 216.246 291.888 181.394 255.25C146.542 218.613 123.821 157.275 86.1254 133.579C55.9688 114.622 -31.7479 79.5389 -71.8367 64.3669" stroke="white" stroke-width="1.375"/>
<path opacity="0.458333" d="M474.277 391.532C335.975 353.468 209.717 302.353 174.865 265.715C140.013 229.078 117.292 167.74 79.5966 144.044C49.44 125.087 -38.2768 90.0037 -78.3655 74.8317" stroke="white" stroke-width="1.3125"/>
<path opacity="0.5" d="M467.747 401.997C329.445 363.933 203.187 312.818 168.336 276.18C133.484 239.542 110.763 178.205 73.067 154.509C42.9104 135.552 -44.8063 100.469 -84.8951 85.2965" stroke="white" stroke-width="1.25"/>
<path opacity="0.541667" d="M461.218 412.462C322.916 374.398 196.658 323.282 161.807 286.645C126.955 250.007 104.234 188.67 66.538 164.973C36.3814 146.016 -51.3353 110.933 -91.4241 95.7613" stroke="white" stroke-width="1.1875"/>
<path opacity="0.583333" d="M454.689 422.927C316.387 384.863 190.129 333.747 155.277 297.11C120.426 260.472 97.7044 199.135 60.0087 175.438C29.8521 156.481 -57.8646 121.398 -97.9534 106.226" stroke="white" stroke-width="1.125"/>
<path opacity="0.625" d="M448.16 433.391C309.858 395.328 183.6 344.212 148.748 307.574C113.897 270.937 91.1754 209.599 53.4796 185.903C23.323 166.946 -64.3937 131.863 -104.482 116.691" stroke="white" stroke-width="1.0625"/>
<path opacity="0.666667" d="M441.631 443.856C303.329 405.792 177.071 354.677 142.22 318.039C107.368 281.402 84.6466 220.064 46.9508 196.368C16.7942 177.411 -70.9225 142.328 -111.011 127.156" stroke="white"/>
<path opacity="0.708333" d="M435.102 454.321C296.8 416.257 170.542 365.141 135.69 328.504C100.838 291.866 78.117 230.529 40.4213 206.833C10.2647 187.876 -77.452 152.792 -117.541 137.621" stroke="white" stroke-width="0.9375"/>
<path opacity="0.75" d="M428.573 464.786C290.271 426.722 164.013 375.606 129.161 338.969C94.3092 302.331 71.588 240.994 33.8922 217.297C3.73561 198.34 -83.9811 163.257 -124.07 148.085" stroke="white" stroke-width="0.875"/>
<path opacity="0.791667" d="M422.043 475.251C283.741 437.187 157.483 386.071 122.632 349.434C87.7799 312.796 65.0587 251.459 27.3629 227.762C-2.79369 208.805 -90.5104 173.722 -130.599 158.55" stroke="white" stroke-width="0.8125"/>
<path opacity="0.833333" d="M415.514 485.715C277.212 447.652 150.954 396.536 116.103 359.898C81.2508 323.261 58.5296 261.923 20.8339 238.227C-9.32274 219.27 -97.0394 184.187 -137.128 169.015" stroke="white" stroke-width="0.75"/>
<path opacity="0.875" d="M408.985 496.18C270.683 458.116 144.425 407.001 109.574 370.363C74.7218 333.726 52.0006 272.388 14.3048 248.692C-15.8518 229.735 -103.569 194.652 -143.657 179.48" stroke="white" stroke-width="0.6875"/>
<path opacity="0.916667" d="M402.456 506.645C264.154 468.581 137.896 417.466 103.044 380.828C68.1925 344.19 45.4713 282.853 7.77551 259.157C-22.3811 240.2 -110.098 205.117 -150.187 189.945" stroke="white" stroke-width="0.625"/>
<path opacity="0.958333" d="M395.927 517.11C257.625 479.046 131.367 427.93 96.5152 391.293C61.6634 354.655 38.9422 293.318 1.24646 269.621C-28.9101 250.664 -116.627 215.581 -156.716 200.409" stroke="white" stroke-width="0.5625"/>
<path d="M389.397 527.575C251.096 489.511 124.838 438.395 89.9859 401.758C55.1341 365.12 32.4129 303.783 -5.28284 280.086C-35.4394 261.129 -123.156 226.046 -163.245 210.874" stroke="white" stroke-width="0.5"/>
</g>
</svg>
