<svg width="1920" height="430" viewBox="0 0 1920 430" fill="none" xmlns="http://www.w3.org/2000/svg">
<g opacity="0.3">
<path opacity="0.0169492" d="M503.254 -811.037C1285.83 -101.691 1170.93 418.529 1170.37 1301.18" stroke="white" stroke-width="0.5"/>
<path opacity="0.0338983" d="M594.862 -845.065C1305.51 -70.4899 1149.27 435.734 1075.32 1312.09" stroke="white" stroke-width="0.5"/>
<path opacity="0.0508475" d="M688.896 -870.831C1322.26 -38.1633 1126.21 450.831 979.953 1314.83" stroke="white" stroke-width="0.5"/>
<path opacity="0.0677966" d="M784.615 -888.173C1336.04 -4.98186 1101.95 463.708 884.951 1309.44" stroke="white" stroke-width="0.5"/>
<path opacity="0.0847458" d="M881.268 -896.994C1346.81 28.7849 1076.72 474.274 791.006 1296.01" stroke="white" stroke-width="0.5"/>
<path opacity="0.101695" d="M978.099 -897.264C1354.58 62.8706 1050.71 482.457 698.799 1274.66" stroke="white" stroke-width="0.5"/>
<path opacity="0.118644" d="M1074.36 -889.02C1359.39 97.0129 1024.17 488.204 608.991 1245.6" stroke="white" stroke-width="0.5"/>
<path opacity="0.135593" d="M1169.29 -872.366C1361.28 130.958 997.317 491.485 522.223 1209.08" stroke="white" stroke-width="0.5"/>
<path opacity="0.152542" d="M1262.18 -847.467C1360.31 164.459 970.373 492.289 439.11 1165.42" stroke="white" stroke-width="0.5"/>
<path opacity="0.169492" d="M1352.3 -814.556C1356.59 197.283 943.569 490.628 360.238 1114.96" stroke="white" stroke-width="0.5"/>
<path opacity="0.186441" d="M1438.97 -773.925C1350.21 229.206 917.126 486.533 286.155 1058.12" stroke="white" stroke-width="0.5"/>
<path opacity="0.20339" d="M1521.53 -725.926C1341.32 260.02 891.267 480.055 217.376 995.331" stroke="white" stroke-width="0.5"/>
<path opacity="0.220339" d="M1599.35 -670.965C1330.04 289.531 866.202 471.264 154.371 927.096" stroke="white" stroke-width="0.5"/>
<path opacity="0.237288" d="M1671.86 -609.501C1316.54 317.562 842.138 460.252 97.566 853.937" stroke="white" stroke-width="0.5"/>
<path opacity="0.254237" d="M1738.51 -542.044C1300.98 343.953 819.27 447.125 47.3398 776.415" stroke="white" stroke-width="0.5"/>
<path opacity="0.271186" d="M1798.81 -469.144C1283.56 368.562 797.784 432.01 4.02189 695.116" stroke="white" stroke-width="0.5"/>
<path opacity="0.288136" d="M1852.33 -391.394C1264.45 391.267 777.849 415.048 -32.1129 610.652" stroke="white" stroke-width="0.5"/>
<path opacity="0.305085" d="M1898.68 -309.421C1243.86 411.963 759.623 396.393 -60.8413 523.654" stroke="white" stroke-width="0.5"/>
<path opacity="0.322034" d="M1937.52 -223.884C1221.98 430.567 743.249 376.215 -81.9957 434.768" stroke="white" stroke-width="0.5"/>
<path opacity="0.338983" d="M1968.6 -135.463C1199.02 447.012 728.85 354.695 -95.4668 344.65" stroke="white" stroke-width="0.5"/>
<path opacity="0.355932" d="M1991.71 -44.8601C1175.18 461.255 716.537 332.024 -101.196 253.962" stroke="white" stroke-width="0.5"/>
<path opacity="0.372881" d="M2006.7 47.2085C1150.68 473.269 706.4 308.4 -99.1879 163.363" stroke="white" stroke-width="0.5"/>
<path opacity="0.38983" d="M2013.5 140.02C1125.71 483.046 698.508 284.032 -89.5 73.5121" stroke="white" stroke-width="0.5"/>
<path opacity="0.40678" d="M2012.09 232.849C1100.48 490.597 692.914 259.129 -72.245 -14.9443" stroke="white" stroke-width="0.5"/>
<path opacity="0.423729" d="M2002.52 324.972C1075.18 495.95 689.65 233.907 -47.5912 -101.373" stroke="white" stroke-width="0.5"/>
<path opacity="0.440678" d="M1984.91 415.674C1049.99 499.151 688.728 208.581 -15.7574 -185.158" stroke="white" stroke-width="0.5"/>
<path opacity="0.457627" d="M1959.42 504.258C1025.1 500.26 690.138 183.368 22.9824 -265.707" stroke="white" stroke-width="0.5"/>
<path opacity="0.474576" d="M1926.3 590.042C1000.67 499.352 693.855 158.479 68.31 -342.455" stroke="white" stroke-width="0.5"/>
<path opacity="0.491525" d="M1885.84 672.373C976.866 496.514 699.833 134.126 119.861 -414.867" stroke="white" stroke-width="0.5"/>
<path opacity="0.508475" d="M1838.38 750.624C953.832 491.848 708.004 110.511 177.226 -482.445" stroke="white" stroke-width="0.5"/>
<path opacity="0.525424" d="M1784.34 824.206C931.703 485.463 718.286 87.8301 239.958 -544.726" stroke="white" stroke-width="0.5"/>
<path opacity="0.542373" d="M1724.16 892.568C910.598 477.481 730.575 66.2712 307.568 -601.288" stroke="white" stroke-width="0.5"/>
<path opacity="0.559322" d="M1658.35 955.201C890.625 468.029 744.754 46.0102 379.544 -651.756" stroke="white" stroke-width="0.5"/>
<path opacity="0.576271" d="M1587.43 1011.65C871.879 457.241 760.692 27.2111 455.339 -695.799" stroke="white" stroke-width="0.5"/>
<path opacity="0.59322" d="M1512 1061.49C854.438 445.255 778.242 10.0257 534.384 -733.136" stroke="white" stroke-width="0.5"/>
<path opacity="0.610169" d="M1432.65 1104.38C838.363 432.215 797.24 -5.41008 616.087 -763.534" stroke="white" stroke-width="0.5"/>
<path opacity="0.627119" d="M1350.03 1140.01C823.705 418.264 817.517 -18.9752 699.843 -786.814" stroke="white" stroke-width="0.5"/>
<path opacity="0.644068" d="M1264.8 1168.14C810.498 403.546 838.89 -30.565 785.036 -802.847" stroke="white" stroke-width="0.5"/>
<path opacity="0.661017" d="M1177.63 1188.59C798.764 388.205 861.171 -40.0937 871.042 -811.56" stroke="white" stroke-width="0.5"/>
<path opacity="0.677966" d="M1089.21 1201.23C788.51 372.382 884.163 -47.492 957.236 -812.932" stroke="white" stroke-width="0.5"/>
<path opacity="0.694915" d="M1000.24 1206.01C779.729 356.214 907.663 -52.7096 1042.99 -806.994" stroke="white" stroke-width="0.5"/>
<path opacity="0.711864" d="M911.415 1202.92C772.404 339.835 931.469 -55.7152 1127.7 -793.832" stroke="white" stroke-width="0.5"/>
<path opacity="0.728814" d="M823.426 1192.02C766.503 323.37 955.372 -56.4968 1210.75 -773.583" stroke="white" stroke-width="0.5"/>
<path opacity="0.745763" d="M736.956 1173.45C761.986 306.94 979.166 -55.0611 1291.55 -746.432" stroke="white" stroke-width="0.5"/>
<path opacity="0.762712" d="M652.674 1147.37C758.804 290.657 1002.65 -51.4339 1369.54 -712.616" stroke="white" stroke-width="0.5"/>
<path opacity="0.779661" d="M571.226 1114.04C756.896 274.626 1025.62 -45.6595 1444.16 -672.417" stroke="white" stroke-width="0.5"/>
<path opacity="0.79661" d="M493.234 1073.75C756.197 258.94 1047.89 -37.8003 1514.9 -626.161" stroke="white" stroke-width="0.5"/>
<path opacity="0.813559" d="M419.289 1026.84C756.631 243.685 1069.26 -27.937 1581.28 -574.217" stroke="white" stroke-width="0.5"/>
<path opacity="0.830508" d="M349.95 973.72C758.123 228.936 1089.55 -16.1651 1642.83 -516.991" stroke="white" stroke-width="0.5"/>
<path opacity="0.847458" d="M285.735 914.827C760.587 214.758 1108.61 -2.59877 1699.15 -454.926" stroke="white" stroke-width="0.5"/>
<path opacity="0.864407" d="M227.121 850.654C763.939 201.205 1126.26 12.6357 1749.86 -388.496" stroke="white" stroke-width="0.5"/>
<path opacity="0.881356" d="M174.536 781.726C768.09 188.322 1142.37 29.3965 1794.63 -318.206" stroke="white" stroke-width="0.5"/>
<path opacity="0.898305" d="M128.365 708.606C772.953 176.141 1156.81 47.5298 1833.17 -244.582" stroke="white" stroke-width="0.5"/>
<path opacity="0.915254" d="M88.9323 631.886C778.439 164.688 1169.45 66.8717 1865.24 -168.174" stroke="white" stroke-width="0.5"/>
<path opacity="0.932203" d="M56.5158 552.184C784.462 153.976 1180.21 87.248 1890.64 -89.5462" stroke="white" stroke-width="0.5"/>
<path opacity="0.949153" d="M31.3326 470.137C790.938 144.01 1188.99 108.476 1909.24 -9.27747" stroke="white" stroke-width="0.5"/>
<path opacity="0.966102" d="M13.5444 386.398C797.786 134.785 1195.74 130.366 1920.94 72.0462" stroke="white" stroke-width="0.5"/>
<path opacity="0.983051" d="M3.25195 301.629C804.929 126.289 1200.4 152.726 1925.69 153.835" stroke="white" stroke-width="0.5"/>
<path d="M0.5 216.5C812.298 118.505 1202.94 175.359 1923.5 235.5" stroke="white" stroke-width="0.5"/>
</g>
</svg>
