<svg width="151" height="96" viewBox="0 0 151 96" fill="none" xmlns="http://www.w3.org/2000/svg">
<path fill-rule="evenodd" clip-rule="evenodd" d="M62.9336 73.0618C62.9336 65.2348 61.3317 54.8286 72.3437 54.8286H93.812C96.7387 54.8286 98.7602 55.7059 100.327 57.1363C100.875 57.6371 101.808 58.9383 102.146 59.7281C103.459 62.7986 102.928 70.9576 102.928 75.1201C102.928 80.6567 98.5844 83.6486 92.9298 83.6486H72.9321C69.4191 83.6486 67.0892 82.8199 65.3518 80.9366C63.5421 78.9742 62.9336 76.7241 62.9336 73.0618ZM67.3448 40.4189H98.5171C104.664 40.4189 103.804 48.9474 99.1054 48.9474H66.7564C62.0527 48.9474 61.5943 40.4189 67.3448 40.4189ZM31.7613 16.01C31.7613 11.7725 34.6012 9.24592 38.8193 9.24592H61.463C70.218 9.24592 68.5209 18.1663 68.5209 25.7146H31.7613V16.01ZM22.6444 26.0085C21.4377 26.5878 20.6333 26.7608 19.4579 27.5271C16.3319 29.5659 14.459 32.7677 14.1165 36.8899C9.51916 36.8899 7.66993 36.364 4.40148 38.0563C2.49042 39.0455 0 42.0138 0 44.8301V77.1791C0 80.3031 1.9583 83.154 4.01454 84.3398C7.2177 86.1884 9.41843 85.707 14.1165 85.707C14.4708 86.4461 14.4875 87.1012 14.7633 88.0008C14.98 88.7059 15.276 89.2686 15.681 90.0237C17.9178 94.1897 22.0838 96 27.3501 96H102.046C104.358 96 106.367 95.6985 108.104 95.0004C114.551 92.4092 115.28 86.5802 115.28 80.7081L142.041 85.1193C146.685 85.1193 150.57 81.5125 150.57 76.8846V45.7123C150.57 43.4581 149.342 41.001 148.136 39.9104C146.79 38.694 144.019 37.2004 142.335 37.4776L115.28 41.8902C115.28 34.6058 114.788 31.3575 110.625 28.0161C106.678 24.8477 99.93 25.7146 94.1066 25.7146C94.6199 23.509 96.6192 20.7164 98.1732 19.4889C100.557 17.6057 102.202 17.0902 105.575 16.3038C106.815 18.647 108.012 20.283 110.288 21.5896C113.118 23.2138 115.396 23.3618 119.397 23.3618C127.072 23.3618 132.826 20.044 133.438 12.1087C133.661 9.21605 131.949 5.16469 129.74 3.31407C125.779 -0.00301542 123.165 0.129668 117.632 0.129668C112.384 0.129668 110.004 1.54889 107.408 4.3151C104.957 6.92848 107.083 7.06533 103.309 7.56827C101.312 7.83364 99.4403 8.56652 97.6702 9.28135C94.854 10.4199 91.1361 13.4175 89.3945 15.7099C87.6634 17.9891 84.9952 22.1141 84.6957 25.7146H77.344C77.344 16.3636 78.7945 8.99375 71.7171 3.69753C68.1242 1.00843 64.6779 0.129668 58.5224 0.129668C51.9952 0.129668 36.8867 -0.667821 31.8537 1.69269C29.3626 2.86114 27.0535 4.52837 25.5766 6.59086C22.0053 11.578 22.6444 17.6939 22.6444 26.0085Z" fill="#182431"/>
<path fill-rule="evenodd" clip-rule="evenodd" d="M71.7563 66.5916C71.7563 76.6568 70.0779 74.8256 91.1655 74.8256C95.0134 74.8256 94.1068 70.4756 94.1068 66.2971C94.1068 64.8438 92.9133 63.6504 91.4601 63.6504H74.1084C73.6187 63.6504 72.7434 64.3027 72.4607 64.6493C72.1015 65.0911 71.7563 65.8886 71.7563 66.5916Z" fill="#182431"/>
</svg>
