<svg width="56" height="56" viewBox="0 0 56 56" fill="none" xmlns="http://www.w3.org/2000/svg">
<path d="M30.3333 4.6667C32.0618 4.66387 33.7302 5.30065 35.0172 6.45441C36.3043 7.60817 37.1189 9.19731 37.3043 10.9158C37.4897 12.6343 37.0328 14.3607 36.0214 15.7624C35.0101 17.1641 33.5159 18.1421 31.8266 18.508L31.4276 18.5827L34.7783 23.9424L38.801 22.3324C39.3543 22.109 39.9721 22.1061 40.5275 22.3242C41.0829 22.5424 41.5336 22.965 41.7869 23.5052C42.0403 24.0454 42.0771 24.6622 41.8898 25.2287C41.7024 25.7952 41.3051 26.2684 40.7796 26.551L40.5323 26.6677L36.512 28.2754C35.5589 28.6566 34.5068 28.7131 33.5185 28.436C32.5302 28.1588 31.6608 27.5636 31.045 26.7424L30.821 26.4157L30.4406 25.809L29.0266 31.465C28.9043 31.9572 28.7025 32.4261 28.4293 32.8534L28.2193 33.1567L32.0763 36.022C32.9963 36.7057 33.6325 37.704 33.8636 38.8267L33.9313 39.2514L34.755 46.6667H35C35.5947 46.6674 36.1667 46.8951 36.5991 47.3033C37.0316 47.7116 37.2918 48.2696 37.3267 48.8633C37.3615 49.457 37.1684 50.0416 36.7867 50.4976C36.405 50.9537 35.8635 51.2468 35.273 51.317L35 51.3334H32.8766C32.2927 51.3335 31.7262 51.1345 31.2705 50.7693C30.8149 50.404 30.4975 49.8943 30.3706 49.3244L30.324 49.0514L29.2926 39.767L21.9426 34.307C21.8119 34.2109 21.6914 34.1014 21.5833 33.9804C20.9351 33.4613 20.4371 32.7789 20.1406 32.0033C19.8441 31.2277 19.7597 30.3871 19.8963 29.568L19.9733 29.2017L21.826 21.7887L18.1626 22.8854L16.2143 28.7374C16.0272 29.3036 15.6304 29.7767 15.1053 30.0595C14.5803 30.3423 13.967 30.4133 13.3912 30.258C12.8154 30.1027 12.321 29.7329 12.0094 29.2244C11.6978 28.716 11.5927 28.1075 11.7156 27.524L11.7856 27.2627L13.7363 21.4107C13.953 20.7614 14.3099 20.1677 14.7817 19.6717C15.2535 19.1757 15.8286 18.7896 16.4663 18.5407L16.8233 18.417L24.843 16.0114C24.0264 14.9798 23.517 13.739 23.3733 12.4312C23.2297 11.1234 23.4574 9.80159 24.0306 8.61733C24.6037 7.43307 25.499 6.4343 26.6137 5.73555C27.7285 5.0368 29.0176 4.66636 30.3333 4.6667ZM22.4 35.4667C22.895 35.838 23.2223 36.3908 23.3098 37.0034C23.3974 37.616 23.2379 38.2383 22.8666 38.7334L20.0293 42.518C19.4925 43.2337 18.702 43.7166 17.8202 43.8676C16.9384 44.0186 16.0323 43.8263 15.288 43.33L10.7846 40.327C10.3185 40.7011 9.72661 40.882 9.13101 40.8325C8.5354 40.783 7.9815 40.5069 7.58351 40.061C7.18552 39.6152 6.9738 39.0336 6.99199 38.4362C7.01018 37.8388 7.25691 37.2712 7.68129 36.8504L8.83629 35.6977C9.22138 35.3118 9.72833 35.0714 10.2708 35.0174C10.8132 34.9633 11.3577 35.099 11.8113 35.4014L16.9586 38.8337L19.1333 35.9334C19.3171 35.6882 19.5475 35.4817 19.8111 35.3256C20.0748 35.1695 20.3666 35.0668 20.67 35.0235C20.9733 34.9801 21.2822 34.997 21.579 35.073C21.8759 35.1491 22.1548 35.2828 22.4 35.4667Z" fill="#182431"/>
</svg>
