<svg width="49" height="56" viewBox="0 0 49 56" fill="none" xmlns="http://www.w3.org/2000/svg">
<path d="M42 38.5C41.9617 38.5 41.9267 38.5109 41.8884 38.5109L37.6009 31.3666C38.1555 30.3636 38.5 29.2272 38.5 28C38.5 26.7728 38.1566 25.6364 37.6009 24.6334L41.8884 17.4891C41.9267 17.4902 41.9617 17.5 42 17.5C45.8664 17.5 49 14.3664 49 10.5C49 6.63359 45.8664 3.5 42 3.5C39.4155 3.5 37.1831 4.91641 35.9713 7H13.0288C11.8169 4.91641 9.58453 3.5 7 3.5C3.13359 3.5 0 6.63359 0 10.5C0 13.0845 1.41641 15.3169 3.5 16.5287V39.4702C1.41641 40.6831 0 42.9155 0 45.5C0 49.3664 3.13359 52.5 7 52.5C9.58453 52.5 11.8169 51.0836 13.0288 49H35.9702C37.1831 51.0836 39.4144 52.5 41.9989 52.5C45.8653 52.5 48.9989 49.3664 48.9989 45.5C49 41.6336 45.8664 38.5 42 38.5ZM10.5 39.4713V16.5287C11.5482 15.9197 12.4197 15.0482 13.0288 14H35.8181L31.6116 21.0109C31.5733 21.0098 31.5383 21 31.5 21C27.6336 21 24.5 24.1336 24.5 28C24.5 31.8664 27.6336 35 31.5 35C31.5383 35 31.5733 34.9891 31.6116 34.9891L35.8181 42H13.0288C12.42 40.9516 11.5484 40.08 10.5 39.4713ZM29.75 28C29.75 27.0353 30.5353 26.25 31.5 26.25C32.4647 26.25 33.25 27.0353 33.25 28C33.25 28.9647 32.4647 29.75 31.5 29.75C30.5353 29.75 29.75 28.9647 29.75 28ZM43.75 10.5C43.75 11.4647 42.9647 12.25 42 12.25C41.0353 12.25 40.25 11.4647 40.25 10.5C40.25 9.53531 41.0353 8.75 42 8.75C42.9647 8.75 43.75 9.53531 43.75 10.5ZM7 8.75C7.96469 8.75 8.75 9.53531 8.75 10.5C8.75 11.4647 7.96469 12.25 7 12.25C6.03531 12.25 5.25 11.4647 5.25 10.5C5.25 9.53531 6.03531 8.75 7 8.75ZM5.25 45.5C5.25 44.5353 6.03531 43.75 7 43.75C7.96469 43.75 8.75 44.5353 8.75 45.5C8.75 46.4647 7.96469 47.25 7 47.25C6.03531 47.25 5.25 46.4647 5.25 45.5ZM42 47.25C41.0353 47.25 40.25 46.4647 40.25 45.5C40.25 44.5353 41.0353 43.75 42 43.75C42.9647 43.75 43.75 44.5353 43.75 45.5C43.75 46.4647 42.9647 47.25 42 47.25Z" fill="#182431"/>
</svg>
