<svg width="56" height="36" viewBox="0 0 56 36" fill="none" xmlns="http://www.w3.org/2000/svg">
<path fill-rule="evenodd" clip-rule="evenodd" d="M23.4063 27.1731C23.4063 24.2622 22.8105 20.3919 26.9061 20.3919H34.8906C35.9791 20.3919 36.7309 20.7182 37.3135 21.2501C37.5176 21.4364 37.8646 21.9203 37.9902 22.2141C38.4785 23.3561 38.2811 26.3906 38.2811 27.9387C38.2811 29.9978 36.6655 31.1106 34.5625 31.1106H27.1249C25.8184 31.1106 24.9518 30.8024 24.3056 30.102C23.6326 29.3721 23.4063 28.5352 23.4063 27.1731ZM25.0469 15.0326H36.6405C38.9265 15.0326 38.6069 18.2045 36.8593 18.2045H24.8281C23.0787 18.2045 22.9082 15.0326 25.0469 15.0326ZM11.8127 5.95444C11.8127 4.37842 12.8689 3.43874 14.4377 3.43874H22.8593C26.1155 3.43874 25.4843 6.7564 25.4843 9.56379H11.8127V5.95444ZM8.42191 9.67308C7.97313 9.88856 7.67394 9.95289 7.23679 10.2379C6.07415 10.9962 5.3776 12.187 5.25023 13.7201C3.54037 13.7201 2.8526 13.5245 1.637 14.1539C0.926237 14.5218 0 15.6258 0 16.6732V28.7045C0 29.8663 0.72833 30.9267 1.49309 31.3677C2.68441 32.0552 3.50291 31.8762 5.25023 31.8762C5.38199 32.1511 5.38819 32.3947 5.49076 32.7293C5.57137 32.9915 5.68144 33.2008 5.83206 33.4816C6.664 35.031 8.21341 35.7043 10.1721 35.7043H37.953C38.8128 35.7043 39.56 35.5922 40.2062 35.3326C42.6038 34.3689 42.8748 32.2009 42.8748 30.017L52.8281 31.6576C54.5552 31.6576 56 30.3162 56 28.5949V17.0013C56 16.1629 55.5435 15.2491 55.0949 14.8435C54.5942 14.3911 53.5636 13.8356 52.9373 13.9387L42.8751 15.5798C42.8748 12.8706 42.6922 11.6625 41.1438 10.4198C39.6758 9.24135 37.166 9.56379 35.0001 9.56379C35.1911 8.74349 35.9346 7.70486 36.5126 7.24833C37.3993 6.5479 38.0109 6.3562 39.2655 6.06373C39.7267 6.93519 40.1718 7.54364 41.0185 8.02962C42.0708 8.63368 42.9182 8.68871 44.4061 8.68871C47.2606 8.68871 49.4006 7.45476 49.6285 4.50346C49.7114 3.42763 49.0745 1.92085 48.2529 1.23257C46.7797 -0.00112149 45.8075 0.0482263 43.7499 0.0482263C41.798 0.0482263 40.9125 0.576065 39.9473 1.60487C39.0358 2.57684 39.8264 2.62774 38.4227 2.81479C37.6801 2.91349 36.9839 3.18606 36.3255 3.45192C35.2781 3.87538 33.8954 4.99022 33.2476 5.84283C32.6038 6.69052 31.6114 8.22469 31.5001 9.56379H28.7658C28.7658 6.08595 29.3053 3.34496 26.673 1.37519C25.3368 0.375057 24.055 0.0482263 21.7657 0.0482263C19.3381 0.0482263 13.7189 -0.248376 11.847 0.629547C10.9206 1.06412 10.0617 1.68419 9.51247 2.45128C8.18421 4.30607 8.42191 6.58072 8.42191 9.67308Z" fill="#182431"/>
<path fill-rule="evenodd" clip-rule="evenodd" d="M26.6876 24.7669C26.6876 28.5103 26.0634 27.8293 33.9063 27.8293C35.3374 27.8293 35.0002 26.2114 35.0002 24.6573C35.0002 24.1168 34.5564 23.673 34.0159 23.673H27.5624C27.3803 23.673 27.0547 23.9156 26.9496 24.0445C26.816 24.2088 26.6876 24.5054 26.6876 24.7669Z" fill="#182431"/>
</svg>
